<?xml version="1.0" encoding="UTF-8"?>
<svg id="Layer_1" xmlns="http://www.w3.org/2000/svg" version="1.1" viewBox="0 0 529.11 191.09">
  <!-- Generator: Adobe Illustrator 30.6.0, SVG Export Plug-In . SVG Version: 2.1.4 Build 109)  -->
  <defs>
    <style>
      .st0 {
        fill: #fff;
      }

      .st1 {
        fill: #5a28e5;
      }

      .st2 {
        fill: #7d7dff;
        opacity: .2;
      }
    </style>
  </defs>
  <g>
    <path class="st0" d="M242.77,132.5h-20.52V60.99h20.06v19.16h1.51c4.07-13.88,12.67-21.12,23.99-21.12,12.67,0,18.86,8,19.76,21.42h1.66c3.92-14.03,12.07-21.42,23.84-21.42,14.03,0,21.12,9.5,21.12,25.04v48.43h-20.67v-42.69c0-7.24-3.32-12.22-10.86-12.22-8.75,0-14.18,6.19-14.18,15.09v39.83h-20.52v-42.69c0-7.24-3.47-12.22-10.86-12.22-8.75,0-14.33,6.19-14.33,15.09v39.83Z"/>
    <path class="st0" d="M384.43,115.46h-1.81c-3.62,11.32-11.16,18.56-23.38,18.56s-20.97-6.19-20.97-20.22c0-12.82,7.54-21.72,26.4-21.72h18.71v-4.98c0-7.39-3.17-11.62-11.01-11.62-6.79,0-10.71,3.32-12.07,10.26l-19.31-4.38c2.41-12.97,12.37-22.18,32.13-22.18,21.72,0,30.62,9.96,30.62,27.91v45.41h-19.31v-17.05ZM383.37,105.05v-2.87h-14.79c-6.64,0-10.86,3.02-10.86,8,0,4.53,2.56,8.15,10.41,8.15,9.35,0,15.24-5.58,15.24-13.28Z"/>
    <path class="st0" d="M412.04,132.5V60.99h19.46v23.23h1.66c4.53-19.91,10.56-23.99,19.91-23.99h2.11v23.54h-4.22c-14.33,0-18.41,4.22-18.41,16.9v31.83h-20.52Z"/>
    <path class="st0" d="M455.49,96.75c0-23.84,14.18-37.72,36.96-37.72s36.66,13.88,36.66,37.72-13.88,37.87-36.66,37.87-36.96-14.33-36.96-37.87ZM476,96.6c0,12.97,4.68,20.52,16.29,20.52s16.29-7.54,16.29-20.52-4.98-20.37-16.29-20.37-16.29,7.39-16.29,20.37Z"/>
  </g>
  <rect class="st0" width="191.09" height="191.09" rx="29.18" ry="29.18"/>
  <path class="st2" d="M191.09,48.4v-1.18h-47.22V0h-1.18v47.22h-46.56V0h-1.18v47.22h-46.56V0h-1.18v47.22H0v1.18h47.22v46.56H0v1.18h47.22v46.56H0v1.18h47.22v47.22h1.18v-47.22h46.56v47.22h1.18v-47.22h46.56v47.22h1.18v-47.22h47.22v-1.18h-47.22v-46.56h47.22v-1.18h-47.22v-46.56h47.22ZM48.4,48.4h46.56v46.56h-46.56v-46.56ZM48.4,142.69v-46.56h46.56v46.56h-46.56ZM142.69,142.69h-46.56v-46.56h46.56v46.56ZM142.69,94.96h-46.56v-46.56h46.56v46.56Z"/>
  <path class="st1" d="M89.61,59.23h10.11v-12.13h-10.11c-6.13,0-11.99,2.55-16.18,7.02-4.19-4.48-10.05-7.02-16.18-7.02h-10.11v12.13h10.11c5.58,0,10.11,4.53,10.11,10.11v30.33h-16.18v12.13h16.18v10.11c0,5.58-4.53,10.11-10.11,10.11h-10.11v12.13h10.11c6.13,0,11.99-2.55,16.18-7.02,4.19,4.48,10.05,7.02,16.18,7.02h10.11v-12.13h-10.11c-5.58,0-10.11-4.53-10.11-10.11v-10.11h16.18v-12.13h-16.18v-30.33c0-5.58,4.53-10.11,10.11-10.11Z"/>
  <path class="st1" d="M130.84,124.08c-2.69,0-5.15-1.5-6.37-3.89l-7.43-15.93-8.42,7.35c-.99.86-2.49.76-3.35-.23-.38-.43-.59-.99-.59-1.56v-35.69c0-3.94,3.19-7.13,7.13-7.13,1.74,0,3.42.64,4.73,1.79l25.42,24.32c.95.91.98,2.41.08,3.36-.4.42-.93.67-1.5.73l-10.62.97,7.28,15.61c1.75,3.53.31,7.8-3.22,9.55-.98.48-2.05.74-3.14.74h0Z"/>
</svg>