<?xml version="1.0" encoding="UTF-8"?>
<svg id="Layer_1" xmlns="http://www.w3.org/2000/svg" version="1.1" viewBox="0 0 914.41 235.26">
  <!-- Generator: Adobe Illustrator 30.6.0, SVG Export Plug-In . SVG Version: 2.1.4 Build 109)  -->
  <defs>
    <style>
      .st0 {
        fill: #fff;
      }

      .st1 {
        fill: red;
      }

      .st2 {
        fill: #3b17ff;
      }

      .st3 {
        fill: #d0e6fd;
      }

      .st4 {
        fill: #00fdba;
      }
    </style>
  </defs>
  <g>
    <path class="st0" d="M487.05,104.38c0-23.55-14.97-30.67-30.91-30.67-22.33,0-42.2,10.55-42.2,34.59v77.77h-24.53v-81.7c0-23.55-14.97-30.67-30.91-30.67-22.33,0-42.2,13-42.2,38.27v74.09h-24.53V57.52h24.53v19.38h.49c11.53-17.91,31.89-23.8,50.29-23.8,16.68,0,33.36,6.87,43.67,23.8,11.78-14.72,27.48-23.8,52.01-23.8,13,0,48.82,6.13,48.82,45.39v87.58h-24.53v-81.7Z"/>
    <path class="st0" d="M526.54,97.76c3.19-32.14,25.27-44.65,63.79-44.65,26.25,0,59.12,6.62,59.12,36.55v69.18c0,7.61,3.44,11.04,11.04,11.04,2.7,0,6.13-.49,8.59-.98v17.17c-5.89.98-13.25,1.47-19.14,1.47-12.27,0-20.36-3.43-22.08-17.91-9.81,13.25-33.86,20.85-54.71,20.85-42.69,0-52.25-22.08-52.25-38.76,0-23.55,13.98-35.57,55.2-39.99l27.97-2.94c13.74-1.47,22.33-3.93,22.33-15.46,0-17.66-17.17-21.1-37.04-21.1-21.1,0-39.01,5.64-39.74,25.51h-23.06ZM626.39,118.86c-3.68,4.17-10.3,5.89-24.04,7.61l-27.72,3.43c-19.14,2.45-29.19,7.61-29.19,21.1,0,12.02,12.02,20.36,29.93,20.36,27.72,0,51.03-14.72,51.03-36.06v-16.44Z"/>
    <path class="st0" d="M680.85,57.52h24.53v23.55h.49c11.53-20.36,27.97-27.97,44.16-27.97,6.13,0,9.32.25,13.98,1.47v26.5c-6.13-1.47-10.79-2.45-17.42-2.45-24.29,0-41.21,14.23-41.21,42.2v65.26h-24.53V57.52Z"/>
    <path class="st0" d="M839.83,53.11c50.05,0,74.58,31.65,74.58,68.69s-24.53,68.69-74.58,68.69-74.58-31.65-74.58-68.69,24.53-68.69,74.58-68.69ZM839.83,73.71c-35.57,0-48.58,24.78-48.58,48.08s13,48.09,48.58,48.09,48.58-24.78,48.58-48.09-13-48.08-48.58-48.08Z"/>
  </g>
  <polygon class="st3" points="58.73 117.45 0 117.45 29.36 0 29.36 0 58.73 117.45"/>
  <polygon class="st3" points="117.45 117.45 58.73 117.45 88.09 0 88.09 0 117.45 117.45"/>
  <polygon class="st4" points="234.91 117.45 117.45 117.45 176.18 0 176.18 0 234.91 117.45"/>
  <path class="st1" d="M20.21,235.26c-26.83-26.83-26.83-70.32,0-97.15,26.83-26.83,70.32-26.83,97.15,0"/>
  <circle class="st2" cx="176.18" cy="176.18" r="58.73"/>
</svg>