<?xml version="1.0" encoding="UTF-8"?>
<svg id="Layer_1" xmlns="http://www.w3.org/2000/svg" version="1.1" viewBox="0 0 191.09 191.09">
  <!-- Generator: Adobe Illustrator 30.6.0, SVG Export Plug-In . SVG Version: 2.1.4 Build 109)  -->
  <defs>
    <style>
      .st0 {
        opacity: .2;
      }

      .st0, .st1 {
        fill: #fff;
      }

      .st2 {
        fill: #5a28e5;
      }
    </style>
  </defs>
  <rect class="st2" width="191.09" height="191.09" rx="29.18" ry="29.18"/>
  <path class="st0" d="M191.09,48.4v-1.18h-47.22V0h-1.18v47.22h-46.56V0h-1.18v47.22h-46.56V0h-1.18v47.22H0v1.18h47.22v46.56H0v1.18h47.22v46.56H0v1.18h47.22v47.22h1.18v-47.22h46.56v47.22h1.18v-47.22h46.56v47.22h1.18v-47.22h47.22v-1.18h-47.22v-46.56h47.22v-1.18h-47.22v-46.56h47.22ZM48.4,48.4h46.56v46.56h-46.56v-46.56ZM48.4,142.69v-46.56h46.56v46.56h-46.56ZM142.69,142.69h-46.56v-46.56h46.56v46.56ZM142.69,94.96h-46.56v-46.56h46.56v46.56Z"/>
  <path class="st1" d="M89.61,59.23h10.11v-12.13h-10.11c-6.13,0-11.99,2.55-16.18,7.02-4.19-4.48-10.05-7.02-16.18-7.02h-10.11v12.13h10.11c5.58,0,10.11,4.53,10.11,10.11v30.33h-16.18v12.13h16.18v10.11c0,5.58-4.53,10.11-10.11,10.11h-10.11v12.13h10.11c6.13,0,11.99-2.55,16.18-7.02,4.19,4.48,10.05,7.02,16.18,7.02h10.11v-12.13h-10.11c-5.58,0-10.11-4.53-10.11-10.11v-10.11h16.18v-12.13h-16.18v-30.33c0-5.58,4.53-10.11,10.11-10.11Z"/>
  <path class="st1" d="M130.84,124.08c-2.69,0-5.15-1.5-6.37-3.89l-7.43-15.93-8.42,7.35c-.99.86-2.49.76-3.35-.23-.38-.43-.59-.99-.59-1.56v-35.69c0-3.94,3.19-7.13,7.13-7.13,1.74,0,3.42.64,4.73,1.79l25.42,24.32c.95.91.98,2.41.08,3.36-.4.42-.93.67-1.5.73l-10.62.97,7.28,15.61c1.75,3.53.31,7.8-3.22,9.55-.98.48-2.05.74-3.14.74h0Z"/>
</svg>