<?xml version="1.0" encoding="UTF-8"?>
<svg id="Layer_1" xmlns="http://www.w3.org/2000/svg" version="1.1" viewBox="0 0 2104.12 274.25">
  <!-- Generator: Adobe Illustrator 30.6.0, SVG Export Plug-In . SVG Version: 2.1.4 Build 109)  -->
  <defs>
    <style>
      .st0 {
        fill: #fff;
      }

      .st1 {
        fill: red;
      }

      .st2 {
        fill: #3b17ff;
      }

      .st3 {
        fill: #d0e6fd;
      }

      .st4 {
        fill: #ff0;
      }

      .st5 {
        fill: #00fdba;
      }
    </style>
  </defs>
  <polygon class="st5" points="548.49 274.25 274.25 274.25 411.37 0 411.37 0 548.49 274.25"/>
  <g>
    <path class="st1" d="M562.98,274.03c-62.64-62.64-62.64-164.2,0-226.84,62.64-62.64,164.2-62.64,226.84,0"/>
    <g>
      <path class="st0" d="M560.82,120.29l12.29-20.22c3.98-6.54,9.95-6.17,14.11-3.64,3.98,2.42,5.74,6.12,4.72,10.38l.09.06c2.16-2.63,5.89-2.68,9.84-.53,6.25,3.42,7.87,4.16,9.82,3.84l-3.11,5.12c-1.39.22-2.76-.61-6.83-2.77-6.05-3.24-9.03-2.36-11.48,1.67l-7.7,12.67,13.86,8.42-2.95,4.85-32.66-19.85ZM586.59,110.77c2.89-4.76.7-7.65-1.58-9.04-3.11-1.89-6.35-1.29-8.72,2.59l-8.31,13.68,10.38,6.31,8.23-13.54Z"/>
      <path class="st0" d="M586.15,82.61l22.53-20.89,3.35,3.61-18.37,17.03,7.53,8.12,17.82-16.52,3.35,3.61-17.82,16.52,8.41,9.07,18.76-17.4,3.35,3.61-22.92,21.25-25.98-28.02Z"/>
      <path class="st0" d="M653.05,52.89c-3.11-4.38-8.84-6.56-16.04-3.02-8.12,4-10.96,11.19-6.35,20.55,3.19,6.48,9.99,11.43,19.45,6.77,6-2.96,9.15-8.08,7.3-15.47l5.09-2.51c2.92,7.99-.46,17.59-10.26,22.42-8.64,4.26-20.35,4.12-26.92-9.23-4.92-9.99-2.58-20.99,9.14-26.76,6.87-3.38,17.77-5.11,23.69,4.74l-5.09,2.51Z"/>
    </g>
  </g>
  <g>
    <circle class="st2" cx="903.31" cy="137.12" r="137.12"/>
    <g>
      <path class="st5" d="M903.31,243.2c-28.33,0-54.97-11.03-75-31.07-20.03-20.03-31.07-46.67-31.07-75s11.03-54.97,31.07-75c20.03-20.03,46.67-31.07,75-31.07s54.97,11.03,75,31.07c20.03,20.03,31.07,46.67,31.07,75s-11.03,54.97-31.07,75c-20.03,20.03-46.67,31.07-75,31.07h0ZM903.31,39.89c-53.61,0-97.23,43.62-97.23,97.23s43.62,97.23,97.23,97.23,97.23-43.62,97.23-97.23-43.62-97.23-97.23-97.23h0Z"/>
      <path class="st5" d="M903.31,243.2c-16.62,0-32.04-11.39-43.42-32.06-10.92-19.84-16.93-46.13-16.93-74.01s6.01-54.17,16.93-74.01c11.38-20.68,26.8-32.06,43.42-32.06s32.04,11.39,43.42,32.06c10.92,19.84,16.93,46.13,16.93,74.01s-6.01,54.17-16.93,74.01c-11.38,20.68-26.79,32.06-43.42,32.06ZM903.31,39.89c-13.25,0-25.92,9.76-35.67,27.48-10.21,18.56-15.83,43.33-15.83,69.75s5.62,51.19,15.83,69.75c9.75,17.72,22.42,27.48,35.67,27.48s25.92-9.76,35.67-27.48c10.21-18.56,15.83-43.33,15.83-69.75s-5.62-51.19-15.83-69.75c-9.75-17.72-22.42-27.48-35.67-27.48h0Z"/>
      <path class="st5" d="M903.31,242.55c-2.44,0-4.42-1.98-4.42-4.42V36.12c0-2.44,1.98-4.42,4.42-4.42s4.42,1.98,4.42,4.42v202.01c0,2.44-1.98,4.42-4.42,4.42Z"/>
      <path class="st5" d="M1004.32,141.54h-202.01c-2.44,0-4.42-1.98-4.42-4.42s1.98-4.42,4.42-4.42h202.01c2.44,0,4.42,1.98,4.42,4.42s-1.98,4.42-4.42,4.42Z"/>
      <g>
        <path class="st5" d="M989.71,88.82h-172.8c-2.44,0-4.42-1.98-4.42-4.42s1.98-4.42,4.42-4.42h172.8c2.44,0,4.42,1.98,4.42,4.42s-1.98,4.42-4.42,4.42Z"/>
        <path class="st5" d="M989.71,194.27h-172.8c-2.44,0-4.42-1.98-4.42-4.42s1.98-4.42,4.42-4.42h172.8c2.44,0,4.42,1.98,4.42,4.42s-1.98,4.42-4.42,4.42Z"/>
      </g>
    </g>
  </g>
  <g>
    <polygon class="st3" points="137.12 274.25 0 274.25 68.56 0 68.56 0 137.12 274.25"/>
    <polygon class="st3" points="274.25 274.25 137.12 274.25 205.69 0 205.69 0 274.25 274.25"/>
    <circle class="st4" cx="137.12" cy="24.35" r="24.35"/>
  </g>
  <g>
    <rect x="325.01" y="226.1" width="177.67" height="25.64"/>
    <rect x="344.95" y="198.91" width="137.78" height="25.64"/>
    <rect x="362.3" y="171.71" width="103.08" height="25.64"/>
    <rect x="377.84" y="144.52" width="72" height="25.64"/>
    <rect x="398.82" y="117.32" width="30.04" height="25.64"/>
    <rect x="409.7" y="90.13" width="8.29" height="25.64"/>
  </g>
  <polygon class="st5" points="1612.18 274.25 1337.93 274.25 1475.05 0 1475.05 0 1612.18 274.25"/>
  <path class="st1" d="M1626.67,274.03c-62.64-62.64-62.64-164.2,0-226.84,62.64-62.64,164.2-62.64,226.84,0"/>
  <circle class="st2" cx="1966.99" cy="137.12" r="137.12"/>
  <g>
    <polygon class="st3" points="1200.81 274.25 1063.68 274.25 1132.25 0 1132.25 0 1200.81 274.25"/>
    <polygon class="st3" points="1337.93 274.25 1200.81 274.25 1269.37 0 1269.37 0 1337.93 274.25"/>
  </g>
</svg>