<?xml version="1.0" encoding="UTF-8"?>
<svg id="Layer_1" xmlns="http://www.w3.org/2000/svg" version="1.1" viewBox="0 0 548.49 548.49">
  <!-- Generator: Adobe Illustrator 30.6.0, SVG Export Plug-In . SVG Version: 2.1.4 Build 109)  -->
  <defs>
    <style>
      .st0 {
        fill: #fff;
      }

      .st1 {
        fill: red;
      }

      .st2 {
        fill: #3b17ff;
      }

      .st3 {
        fill: #d0e6fd;
      }

      .st4 {
        fill: #ff0;
      }

      .st5 {
        fill: #00fdba;
      }
    </style>
  </defs>
  <polygon class="st5" points="548.49 274.25 274.25 274.25 411.37 0 411.37 0 548.49 274.25"/>
  <g>
    <circle class="st2" cx="411.37" cy="411.37" r="137.12"/>
    <g>
      <path class="st5" d="M411.37,517.44c-28.33,0-54.97-11.03-75-31.07-20.03-20.03-31.07-46.67-31.07-75s11.03-54.97,31.07-75c20.03-20.03,46.67-31.07,75-31.07s54.97,11.03,75,31.07c20.03,20.03,31.07,46.67,31.07,75s-11.03,54.97-31.07,75c-20.03,20.03-46.67,31.07-75,31.07h0ZM411.37,314.14c-53.61,0-97.23,43.62-97.23,97.23s43.62,97.23,97.23,97.23,97.23-43.62,97.23-97.23-43.62-97.23-97.23-97.23h0Z"/>
      <path class="st5" d="M411.37,517.44c-16.62,0-32.04-11.39-43.42-32.06-10.92-19.84-16.93-46.13-16.93-74.01s6.01-54.17,16.93-74.01c11.38-20.68,26.8-32.06,43.42-32.06s32.04,11.39,43.42,32.06c10.92,19.84,16.93,46.13,16.93,74.01s-6.01,54.17-16.93,74.01c-11.38,20.68-26.79,32.06-43.42,32.06ZM411.37,314.14c-13.25,0-25.92,9.76-35.67,27.48-10.21,18.56-15.83,43.33-15.83,69.75s5.62,51.19,15.83,69.75c9.75,17.72,22.42,27.48,35.67,27.48s25.92-9.76,35.67-27.48c10.21-18.56,15.83-43.33,15.83-69.75s-5.62-51.19-15.83-69.75c-9.75-17.72-22.42-27.48-35.67-27.48h0Z"/>
      <path class="st5" d="M411.37,516.8c-2.44,0-4.42-1.98-4.42-4.42v-202.01c0-2.44,1.98-4.42,4.42-4.42s4.42,1.98,4.42,4.42v202.01c0,2.44-1.98,4.42-4.42,4.42Z"/>
      <path class="st5" d="M512.38,415.79h-202.01c-2.44,0-4.42-1.98-4.42-4.42s1.98-4.42,4.42-4.42h202.01c2.44,0,4.42,1.98,4.42,4.42s-1.98,4.42-4.42,4.42Z"/>
      <g>
        <path class="st5" d="M497.77,363.06h-172.8c-2.44,0-4.42-1.98-4.42-4.42s1.98-4.42,4.42-4.42h172.8c2.44,0,4.42,1.98,4.42,4.42s-1.98,4.42-4.42,4.42h0Z"/>
        <path class="st5" d="M497.77,468.52h-172.8c-2.44,0-4.42-1.98-4.42-4.42s1.98-4.42,4.42-4.42h172.8c2.44,0,4.42,1.98,4.42,4.42s-1.98,4.42-4.42,4.42h0Z"/>
      </g>
    </g>
  </g>
  <g>
    <polygon class="st3" points="137.12 274.25 0 274.25 68.56 0 68.56 0 137.12 274.25"/>
    <polygon class="st3" points="274.25 274.25 137.12 274.25 205.69 0 205.69 0 274.25 274.25"/>
    <circle class="st4" cx="137.12" cy="24.35" r="24.35"/>
  </g>
  <g>
    <rect x="325.01" y="226.1" width="177.67" height="25.64"/>
    <rect x="344.95" y="198.91" width="137.78" height="25.64"/>
    <rect x="362.3" y="171.71" width="103.08" height="25.64"/>
    <rect x="377.84" y="144.52" width="72" height="25.64"/>
    <rect x="398.82" y="117.32" width="30.04" height="25.64"/>
    <rect x="409.7" y="90.13" width="8.29" height="25.64"/>
  </g>
  <path class="st1" d="M.21,548.29h79.94c.11-51.8,20.33-100.49,56.97-137.13,36.64-36.64,85.33-56.86,137.13-56.97v-79.94C123,274.48.44,397.04.21,548.29Z"/>
  <g>
    <path class="st0" d="M46.91,438.19l10.08-21.41c3.26-6.93,9.24-7.19,13.64-5.12,4.21,1.98,6.36,5.48,5.79,9.82l.1.05c1.87-2.84,5.57-3.29,9.73-1.57,6.58,2.74,8.27,3.3,10.17,2.78l-2.55,5.42c-1.36.37-2.81-.31-7.09-2.03-6.36-2.58-9.23-1.39-11.24,2.88l-6.31,13.41,14.67,6.9-2.42,5.14-34.58-16.28ZM71.52,425.99c2.37-5.04-.11-7.68-2.53-8.82-3.29-1.55-6.45-.61-8.4,3.5l-6.81,14.48,10.99,5.17s6.75-14.34,6.75-14.34Z"/>
    <path class="st0" d="M68.1,398.04l20.19-23.16,3.71,3.23-16.46,18.88,8.35,7.28,15.97-18.32,3.71,3.23-15.97,18.32,9.32,8.13,16.81-19.29,3.71,3.23-20.54,23.56-28.8-25.11h0Z"/>
    <path class="st0" d="M131.47,361.39c-3.56-4.03-9.49-5.59-16.27-1.3-7.65,4.84-9.71,12.29-4.14,21.11,3.86,6.11,11.15,10.31,20.06,4.67,5.65-3.58,8.24-9,5.62-16.16l4.8-3.04c3.75,7.64,1.41,17.54-7.83,23.38-8.14,5.15-19.8,6.25-27.75-6.32-5.95-9.41-4.79-20.6,6.25-27.58,6.47-4.09,17.13-6.96,24.06,2.2l-4.8,3.04h-.01Z"/>
  </g>
</svg>