<?xml version="1.0" encoding="UTF-8"?>
<svg id="Layer_1" xmlns="http://www.w3.org/2000/svg" version="1.1" viewBox="0 0 325.61 69.69">
  <!-- Generator: Adobe Illustrator 30.8.2, SVG Export Plug-In . SVG Version: 2.1.4 Build 7)  -->
  <defs>
    <style>
      .st0 {
        fill: red;
      }
    </style>
  </defs>
  <g>
    <circle class="st0" cx="34.85" cy="34.85" r="34.85"/>
    <path d="M41.92,17.85c-.78,0-1.42.63-1.42,1.42,0,4.18-3.66,5.66-7.08,5.66h-9.91c-3.13,0-5.66,2.54-5.66,5.66v2.83c0,1.72.8,3.34,2.14,4.4l5.06,11.29c.73,1.65,2.37,2.72,4.18,2.72,2.33,0,4.22-1.89,4.22-4.23,0-.59-.13-1.18-.37-1.72l-3.12-6.8h3.46c3.42,0,7.08,1.49,7.08,5.66,0,.78.63,1.42,1.42,1.42s1.42-.63,1.42-1.42v-25.49c0-.78-.63-1.42-1.42-1.42h0ZM30.51,47.05c.31.7,0,1.53-.71,1.84-.18.08-.37.12-.56.12-.69,0-1.32-.41-1.59-1.04l-3.98-8.87h3.19l3.65,7.96ZM40.51,38.52c-2.02-1.56-4.53-2.36-7.08-2.27h-9.91c-1.56,0-2.83-1.27-2.83-2.83v-2.83c0-1.56,1.27-2.83,2.83-2.83h9.91c2.55.1,5.06-.7,7.08-2.26v13.02ZM51.7,39.73c-.35.7-1.2.98-1.9.63,0,0,0,0,0,0l-2.83-1.42c-.7-.35-.98-1.2-.63-1.9.35-.7,1.2-.98,1.9-.63l2.83,1.42c.7.35.98,1.2.63,1.89h0ZM46.33,26.98c-.35-.7-.07-1.55.63-1.9,0,0,0,0,0,0l2.83-1.42c.7-.35,1.55-.07,1.9.63.35.7.07,1.55-.63,1.9h0l-2.83,1.42c-.7.35-1.55.07-1.9-.63,0,0,0,0,0,0ZM46.17,32.01c0-.78.63-1.42,1.42-1.42h2.83c.78,0,1.42.63,1.42,1.42s-.63,1.42-1.42,1.42h-2.83c-.78,0-1.42-.63-1.42-1.42Z"/>
  </g>
  <g>
    <path d="M87.38,44.03v-18.36h4.08v6.09h.58v12.28h-4.66ZM98.46,44.03v-10.85c0-1.21-.29-2.16-.86-2.83-.57-.67-1.36-1.01-2.37-1.01s-1.74.33-2.32.99c-.58.66-.88,1.52-.88,2.58l-1.94-1.36c0-1.2.3-2.28.9-3.23.6-.95,1.41-1.71,2.42-2.26,1.01-.56,2.15-.83,3.41-.83,1.44,0,2.62.31,3.54.92.92.61,1.61,1.43,2.05,2.45.44,1.02.66,2.14.66,3.37v12.07h-4.62ZM109.52,44.03v-10.85c0-1.21-.29-2.16-.86-2.83-.57-.67-1.36-1.01-2.37-1.01-.65,0-1.21.15-1.68.45-.48.3-.85.72-1.11,1.26-.27.54-.4,1.16-.4,1.86l-1.94-1.29c0-1.26.3-2.37.89-3.33s1.39-1.71,2.4-2.25,2.12-.81,3.34-.81c2.1,0,3.68.62,4.75,1.86,1.07,1.24,1.61,2.87,1.61,4.87v12.07h-4.62Z"/>
    <path d="M122.98,44.54c-1.31,0-2.43-.25-3.34-.76-.91-.5-1.6-1.18-2.07-2.02-.47-.84-.71-1.78-.71-2.8,0-.85.13-1.63.39-2.33.26-.7.68-1.32,1.27-1.86.58-.54,1.37-.99,2.35-1.35.68-.25,1.49-.47,2.43-.66s2.01-.38,3.2-.55c1.19-.18,2.5-.37,3.93-.59l-1.67.92c0-1.09-.26-1.89-.78-2.4-.52-.51-1.39-.77-2.62-.77-.68,0-1.39.16-2.13.49-.74.33-1.25.91-1.55,1.75l-4.18-1.33c.46-1.52,1.34-2.75,2.62-3.71,1.28-.95,3.03-1.43,5.24-1.43,1.62,0,3.06.25,4.32.75s2.21,1.36,2.86,2.58c.36.68.58,1.36.65,2.04s.1,1.44.1,2.28v11.22h-4.05v-3.77l.58.78c-.9,1.24-1.86,2.13-2.9,2.68-1.04.55-2.35.82-3.94.82ZM123.97,40.9c.85,0,1.57-.15,2.15-.45.58-.3,1.05-.64,1.39-1.03.35-.38.58-.71.71-.97.24-.5.38-1.08.42-1.74.04-.66.06-1.22.06-1.66l1.36.34c-1.37.23-2.48.42-3.33.57-.85.15-1.54.29-2.06.42-.52.12-.98.26-1.38.41-.45.18-.82.38-1.1.59-.28.21-.48.44-.61.69-.13.25-.2.53-.2.83,0,.42.1.78.31,1.08.21.3.51.53.89.69.39.16.84.24,1.38.24Z"/>
    <path d="M137.03,44.03v-18.36h4.08v4.49l-.44-.58c.24-.63.56-1.21.95-1.73.4-.52.88-.95,1.46-1.29.44-.27.92-.48,1.45-.64.52-.15,1.06-.25,1.62-.29.56-.04,1.11-.03,1.67.04v4.32c-.51-.16-1.1-.21-1.78-.16-.67.05-1.28.21-1.83.47-.54.25-1,.58-1.38,1-.37.41-.66.9-.85,1.46-.19.56-.29,1.19-.29,1.9v9.39h-4.66Z"/>
    <path d="M158.28,44.54c-1.85,0-3.47-.41-4.86-1.24-1.39-.83-2.48-1.97-3.26-3.43-.78-1.46-1.16-3.13-1.16-5.02s.4-3.6,1.19-5.06,1.89-2.59,3.28-3.41c1.39-.82,3-1.22,4.81-1.22s3.47.41,4.87,1.24c1.4.83,2.49,1.97,3.27,3.43.78,1.46,1.17,3.13,1.17,5.02s-.39,3.58-1.18,5.04c-.79,1.46-1.88,2.6-3.28,3.42-1.4.82-3.02,1.23-4.85,1.23ZM158.28,40.22c1.48,0,2.59-.5,3.32-1.5s1.1-2.29,1.1-3.87-.37-2.94-1.11-3.91c-.74-.98-1.84-1.46-3.31-1.46-1.01,0-1.84.23-2.48.68-.65.45-1.12,1.08-1.44,1.89-.31.81-.47,1.74-.47,2.81,0,1.64.37,2.95,1.11,3.92.74.97,1.83,1.45,3.27,1.45Z"/>
    <path d="M176.78,44.03v-24.49h2.3l9.62,20.59,9.57-20.59h2.33v24.47h-2.38v-18.89l-8.72,18.91h-1.62l-8.71-18.91v18.91h-2.4Z"/>
    <path d="M209.94,44.54c-1.38,0-2.54-.25-3.48-.75s-1.64-1.16-2.1-1.99c-.46-.83-.7-1.73-.7-2.7s.2-1.85.6-2.56.95-1.29,1.65-1.74c.7-.45,1.5-.8,2.42-1.04.93-.23,1.96-.43,3.09-.6s2.23-.33,3.32-.46c1.08-.13,2.03-.26,2.85-.38l-.88.54c.03-1.81-.32-3.16-1.05-4.03-.74-.87-2.02-1.31-3.84-1.31-1.26,0-2.32.28-3.19.85s-1.48,1.46-1.83,2.69l-2.43-.71c.42-1.64,1.26-2.92,2.53-3.83,1.27-.91,2.92-1.36,4.95-1.36,1.68,0,3.1.31,4.28.94,1.17.63,2,1.54,2.49,2.73.23.53.37,1.13.44,1.79.07.66.1,1.33.1,2.01v11.41h-2.23v-4.61l.65.27c-.62,1.58-1.59,2.78-2.91,3.6s-2.89,1.24-4.73,1.24ZM210.23,42.38c1.17,0,2.19-.21,3.06-.63s1.58-.99,2.11-1.73c.53-.73.88-1.56,1.04-2.47.14-.59.21-1.24.22-1.95.01-.71.02-1.24.02-1.59l.95.49c-.85.11-1.77.23-2.76.34-.99.11-1.97.24-2.92.39s-1.82.32-2.59.53c-.52.15-1.03.35-1.51.62-.49.27-.89.62-1.2,1.06s-.47.99-.47,1.65c0,.53.13,1.05.4,1.55.27.5.7.91,1.29,1.24.6.33,1.39.49,2.37.49Z"/>
    <path d="M222.9,44.03v-18.36h2.24v4.42l-.44-.58c.2-.54.47-1.05.8-1.5.33-.46.69-.84,1.07-1.13.48-.42,1.03-.74,1.67-.96s1.28-.35,1.92-.39c.65-.04,1.24,0,1.77.14v2.35c-.67-.17-1.4-.21-2.19-.12s-1.52.41-2.19.95c-.61.48-1.07,1.05-1.38,1.71-.31.66-.51,1.37-.61,2.11-.1.74-.15,1.48-.15,2.2v9.17h-2.5Z"/>
    <path d="M234.46,44.03l.02-24.49h2.52v14.96l8.2-8.84h3.33l-8.6,9.18,9.73,9.18h-3.64l-9.01-8.84v8.84h-2.53Z"/>
    <path d="M258.09,44.54c-1.79,0-3.34-.4-4.65-1.19-1.31-.79-2.33-1.91-3.05-3.35-.73-1.44-1.09-3.13-1.09-5.07s.36-3.74,1.07-5.2c.71-1.46,1.72-2.59,3.02-3.38s2.83-1.19,4.6-1.19,3.36.42,4.64,1.25c1.28.83,2.25,2.03,2.91,3.58.66,1.55.96,3.41.9,5.56h-2.55v-.88c-.05-2.38-.56-4.18-1.54-5.39s-2.41-1.82-4.29-1.82-3.48.64-4.53,1.92c-1.05,1.28-1.57,3.11-1.57,5.48s.52,4.11,1.57,5.38c1.05,1.28,2.54,1.91,4.46,1.91,1.31,0,2.46-.3,3.44-.91.98-.61,1.75-1.48,2.32-2.63l2.33.9c-.73,1.6-1.79,2.84-3.21,3.72-1.41.88-3.01,1.32-4.79,1.32ZM251.07,35.54v-2.09h14.03v2.09h-14.03Z"/>
    <path d="M267.48,27.8v-2.14h12.04v2.14h-12.04ZM279.52,44.03c-1.03.21-2.05.3-3.05.25-1-.05-1.9-.26-2.69-.65-.79-.38-1.39-.99-1.79-1.8-.33-.68-.51-1.37-.54-2.07s-.04-1.49-.04-2.39v-16.82h2.48v16.71c0,.77,0,1.41.03,1.93.02.52.13.97.35,1.37.41.76,1.06,1.21,1.95,1.36.89.15,1.99.11,3.31-.1v2.19Z"/>
    <path d="M282.8,22.18v-2.81h2.5v2.81h-2.5ZM282.8,44.03v-18.36h2.5v18.36h-2.5Z"/>
    <path d="M289.7,44.03v-18.36h2.26v4.52h.26v13.84h-2.52ZM302.98,44.03v-9.37c0-1.02-.1-1.96-.29-2.81-.19-.86-.5-1.6-.93-2.24-.42-.64-.97-1.14-1.65-1.49-.67-.35-1.49-.53-2.46-.53-.88,0-1.66.15-2.34.46-.67.31-1.24.75-1.7,1.32-.46.57-.81,1.27-1.05,2.08-.24.82-.36,1.75-.36,2.79l-1.77-.39c0-1.88.33-3.46.99-4.74.66-1.28,1.56-2.25,2.72-2.91s2.48-.99,3.98-.99c1.1,0,2.06.17,2.88.51.82.34,1.52.8,2.09,1.38.57.58,1.03,1.24,1.39,1.98.35.74.61,1.53.77,2.36.16.83.24,1.66.24,2.49v10.1h-2.52Z"/>
    <path d="M316.36,44.54c-1.71,0-3.17-.43-4.39-1.28-1.21-.86-2.14-2.02-2.79-3.48-.65-1.46-.97-3.11-.97-4.95s.32-3.47.96-4.93c.64-1.46,1.56-2.62,2.76-3.47,1.2-.85,2.64-1.27,4.32-1.27s3.17.42,4.35,1.26c1.18.84,2.07,1.99,2.68,3.44.61,1.46.91,3.11.91,4.97s-.3,3.47-.9,4.94c-.6,1.47-1.49,2.63-2.65,3.49-1.17.86-2.6,1.28-4.29,1.28ZM316.53,52.7c-.94,0-1.87-.14-2.78-.42-.91-.28-1.75-.71-2.52-1.31s-1.42-1.37-1.94-2.32l2.26-1.26c.51,1.02,1.23,1.75,2.15,2.2s1.87.67,2.83.67c1.33,0,2.4-.25,3.22-.74s1.42-1.22,1.79-2.19c.37-.96.56-2.17.54-3.6v-4.9h.29v-13.18h2.23v18.11c0,.52-.01,1.02-.04,1.5s-.08.95-.16,1.42c-.22,1.37-.66,2.5-1.33,3.38-.67.88-1.56,1.54-2.65,1.97s-2.39.65-3.89.65ZM316.62,42.21c1.3,0,2.38-.32,3.23-.95.85-.63,1.49-1.51,1.9-2.63.42-1.12.63-2.38.63-3.8s-.21-2.71-.63-3.82c-.42-1.1-1.05-1.97-1.9-2.59-.84-.62-1.91-.94-3.19-.94s-2.4.32-3.26.97-1.5,1.52-1.91,2.64c-.41,1.11-.62,2.36-.62,3.74s.21,2.65.64,3.77c.42,1.12,1.06,2,1.91,2.64.85.65,1.92.97,3.2.97Z"/>
  </g>
</svg>